<svg xmlns="http://www.w3.org/2000/svg" width="16" height="10" viewBox="0 0 16 10" fill="none">
  <path fill-rule="evenodd" clip-rule="evenodd" d="M15.8192 0.872482C15.8765 0.929639 15.922 0.99754 15.953 1.07229C15.984 1.14705 16 1.22719 16 1.30812C16 1.38906 15.984 1.4692 15.953 1.54395C15.922 1.61871 15.8765 1.68661 15.8192 1.74376L8.43548 9.12751C8.37832 9.18482 8.31042 9.23028 8.23567 9.2613C8.16091 9.29232 8.08077 9.30828 7.99984 9.30828C7.9189 9.30828 7.83876 9.29232 7.76401 9.2613C7.68926 9.23028 7.62135 9.18482 7.5642 9.12751L0.180448 1.74376C0.064908 1.62823 0 1.47152 0 1.30812C0 1.14473 0.064908 0.988021 0.180448 0.872482C0.295987 0.756943 0.452692 0.692034 0.616089 0.692034C0.779486 0.692034 0.936191 0.756943 1.05173 0.872482L7.99984 7.82182L14.9479 0.872482C15.0051 0.81518 15.073 0.769717 15.1478 0.738698C15.2225 0.707678 15.3027 0.691711 15.3836 0.691711C15.4645 0.691711 15.5447 0.707678 15.6194 0.738698C15.6942 0.769717 15.7621 0.81518 15.8192 0.872482Z" fill="#23A6F0"/>
</svg>